<?xml version="1.0" encoding="UTF-8"?>
<svg viewBox="0 0 24 24" fill="none" stroke="#ffffff" stroke-width="1.8" stroke-linecap="round" stroke-linejoin="round" xmlns="http://www.w3.org/2000/svg">
  <path d="M20 10.6 A 8.2 8.2 0 0 1 20 13.4 L17.2 12.8 A 6.2 6.2 0 0 0 17.1 13.3 L19.9 14.2
           M18.4 16.8 A 8.2 8.2 0 0 1 16.8 18.4 L14.8 16.2 A 6.2 6.2 0 0 0 14.3 16.6 L16.2 18.9
           M13.4 20 A 8.2 8.2 0 0 1 10.6 20 L11.2 17.2 A 6.2 6.2 0 0 0 10.7 17.1 L9.8 19.9
           M7.2 18.4 A 8.2 8.2 0 0 1 5.6 16.8 L7.8 14.8 A 6.2 6.2 0 0 0 7.4 14.3 L5.1 16.2
           M4 13.4 A 8.2 8.2 0 0 1 4 10.6 L6.8 11.2 A 6.2 6.2 0 0 0 6.9 10.7 L4.1 9.8
           M5.6 7.2 A 8.2 8.2 0 0 1 7.2 5.6 L9.2 7.8 A 6.2 6.2 0 0 0 9.7 7.4 L7.4 5.1
           M10.6 4 A 8.2 8.2 0 0 1 13.4 4 L12.8 6.8 A 6.2 6.2 0 0 0 13.3 6.9 L14.2 4.1
           M16.8 5.6 A 8.2 8.2 0 0 1 18.4 7.2 L16.2 9.2 A 6.2 6.2 0 0 0 16.6 9.7 L18.9 7.4 Z"/>
  <circle cx="12" cy="12" r="3.5"/>
</svg>