<svg xmlns="http://www.w3.org/2000/svg" fill="none" viewBox="0 0 128 128"><g id="solar-eclipse__solar-eclipse" clip-path="url(#solar-eclipse__clip0_1858_7922)"><g id="solar-eclipse__Solar Eclipse"><g id="solar-eclipse__Mask group"><mask id="solar-eclipse__mask0_1858_7922" width="64" height="64" x="26" y="32" maskUnits="userSpaceOnUse" style="mask-type:alpha"><path id="solar-eclipse__Mask" fill="#000" fill-rule="evenodd" d="M90 32H26v64h64zM71 81c19 0 19 0 19-17s0-17-19-17c-9.389 0-17 7.611-17 17s7.611 17 17 17" clip-rule="evenodd"/></mask><g mask="url(#solar-eclipse__mask0_1858_7922)"><g id="solar-eclipse__Sun"><circle id="solar-eclipse__Core" cx="58" cy="64" r="12.5" fill="url(#solar-eclipse__paint0_linear_1858_7922)" stroke="#f8af18"/><g id="solar-eclipse__Rays"><path fill="#f8af18" d="M56 34a2 2 0 1 1 4 0v9.333a2 2 0 1 1-4 0zM77.799 41.373a2 2 0 1 1 2.828 2.828l-6.6 6.6a2 2 0 0 1-2.828-2.829zM88 62a2 2 0 1 1 0 4h-9.333a2 2 0 1 1 0-4zM80.627 83.799a2 2 0 1 1-2.828 2.828l-6.6-6.6a2 2 0 0 1 2.829-2.828zM56 84.667a2 2 0 1 1 4 0V94a2 2 0 1 1-4 0zM41.972 77.2a2 2 0 0 1 2.829 2.828l-6.6 6.6a2 2 0 1 1-2.828-2.829zM37.333 62a2 2 0 1 1 0 4H28a2 2 0 1 1 0-4zM44.8 47.972a2 2 0 0 1-2.828 2.829l-6.6-6.6a2 2 0 1 1 2.829-2.828z"/></g></g></g></g><circle id="solar-eclipse__Moon" cx="71" cy="64" r="12.5" fill="url(#solar-eclipse__paint1_linear_1858_7922)" stroke="#72b9d5" stroke-linecap="round" stroke-linejoin="round"/></g></g><defs><linearGradient id="solar-eclipse__paint0_linear_1858_7922" x1="58" x2="58" y1="51" y2="77" gradientUnits="userSpaceOnUse"><stop stop-color="#fbbf24"/><stop offset="1" stop-color="#f8af18"/></linearGradient><linearGradient id="solar-eclipse__paint1_linear_1858_7922" x1="71" x2="71" y1="51" y2="77" gradientUnits="userSpaceOnUse"><stop stop-color="#86c3db"/><stop offset="1" stop-color="#72b9d5"/></linearGradient><clipPath id="solar-eclipse__clip0_1858_7922"><rect width="128" height="128" fill="#fff"/></clipPath></defs></svg>